<?xml version="1.0" encoding="UTF-8"?>
<!DOCTYPE svg PUBLIC "-//W3C//DTD SVG 1.1//EN" "http://www.w3.org/Graphics/SVG/1.1/DTD/svg11.dtd">
<svg xmlns="http://www.w3.org/2000/svg" xmlns:xlink="http://www.w3.org/1999/xlink" version="1.1" width="185px" height="255px" viewBox="-0.5 -0.5 185 255"><defs/><g><rect x="2" y="2" width="180" height="250" fill="none" stroke="#000000" stroke-width="5" pointer-events="all"/><rect x="100" y="85" width="64.93" height="19.48" rx="2.6" ry="2.6" fill="none" stroke="#000000" stroke-width="5" transform="rotate(90,132.46,128.5)" pointer-events="all"/><rect x="111.69" y="104.48" width="41.56" height="22.07" fill="none" stroke="#000000" stroke-width="5" transform="rotate(90,132.46,128.5)" pointer-events="all"/><ellipse cx="132.46" cy="139.54" rx="25.972000000000005" ry="32.46268656716418" fill="none" stroke="#000000" stroke-width="5" transform="rotate(90,132.46,128.5)" pointer-events="all"/><ellipse cx="132.47" cy="142.13" rx="15.583200000000001" ry="19.47761194029851" fill="none" stroke="#000000" stroke-width="5" transform="rotate(90,132.46,128.5)" pointer-events="all"/><ellipse cx="132.46" cy="131.75" rx="6.493000000000001" ry="9.08955223880597" fill="#000000" stroke="none" transform="rotate(90,132.46,128.5)" pointer-events="all"/><rect x="2" y="2" width="180" height="80" fill="none" stroke="#000000" stroke-width="5" pointer-events="all"/><rect x="12" y="12" width="160" height="60" rx="9" ry="9" fill="none" stroke="#000000" stroke-width="5" pointer-events="all"/><path d="M 162 31.99 L 177 42 L 162 52 Z" fill="#000000" stroke="#000000" stroke-width="5" stroke-miterlimit="10" transform="rotate(180,169.5,42)" pointer-events="all"/><rect x="14" y="169" width="80" height="5" fill="#ffffff" stroke="#000000" stroke-width="5" transform="rotate(270,54,211.5)" pointer-events="all"/><path d="M 94 174 C 94 218.18 58.18 254 14 254 L 14 174" fill="none" stroke="#000000" stroke-width="5" stroke-miterlimit="10" transform="rotate(270,54,211.5)" pointer-events="all"/><path d="M 186 177 L 186 211.29 C 186 225.49 170.65 237 151.72 237 C 132.78 237 117.43 225.49 117.43 211.29 L 117.43 177 Z Z" fill="none" stroke="#000000" stroke-width="5" stroke-miterlimit="10" transform="rotate(90,151.72,207)" pointer-events="all"/><ellipse cx="151.71" cy="211.29" rx="25.713749999999997" ry="17.142857142857142" fill="none" stroke="#000000" stroke-width="5" transform="rotate(90,151.72,207)" pointer-events="all"/><rect x="149.14" y="182.14" width="6.86" height="27.43" rx="3.43" ry="3.43" fill="none" stroke="#000000" stroke-width="5" transform="rotate(90,151.72,207)" pointer-events="all"/><rect x="149.14" y="182.14" width="6.86" height="18.86" rx="3.43" ry="3.43" fill="none" stroke="#000000" stroke-width="5" transform="rotate(90,151.72,207)" pointer-events="all"/></g></svg>