<?xml version="1.0" encoding="UTF-8"?>
<!DOCTYPE svg PUBLIC "-//W3C//DTD SVG 1.1//EN" "http://www.w3.org/Graphics/SVG/1.1/DTD/svg11.dtd">
<svg xmlns="http://www.w3.org/2000/svg" xmlns:xlink="http://www.w3.org/1999/xlink" version="1.1" width="185px" height="255px" viewBox="-0.5 -0.5 185 255"><defs/><g><rect x="2" y="2" width="180" height="250" fill="none" stroke="#000000" stroke-width="5" pointer-events="all"/><rect x="-48" y="52" width="180" height="80" fill="none" stroke="#000000" stroke-width="5" transform="rotate(-90,42,92)" pointer-events="all"/><rect x="-38" y="62" width="160" height="60" rx="9" ry="9" fill="none" stroke="#000000" stroke-width="5" transform="rotate(-90,42,92)" pointer-events="all"/><path d="M 34 4 L 49 14.01 L 34 24.01 Z" fill="#000000" stroke="#000000" stroke-width="5" stroke-miterlimit="10" transform="rotate(90,41.5,14)" pointer-events="all"/><path d="M 67.03 186.96 L 67.03 221.25 C 67.03 235.45 51.68 246.96 32.75 246.96 C 13.81 246.96 -1.54 235.45 -1.54 221.25 L -1.54 186.96 Z Z" fill="none" stroke="#000000" stroke-width="5" stroke-miterlimit="10" transform="rotate(-90,32.75,216.96)" pointer-events="all"/><ellipse cx="32.75" cy="221.25" rx="25.713749999999997" ry="17.142857142857142" fill="none" stroke="#000000" stroke-width="5" transform="rotate(-90,32.75,216.96)" pointer-events="all"/><rect x="30.17" y="192.1" width="6.86" height="27.43" rx="3.43" ry="3.43" fill="none" stroke="#000000" stroke-width="5" transform="rotate(-90,32.75,216.96)" pointer-events="all"/><rect x="30.17" y="192.1" width="6.86" height="18.86" rx="3.43" ry="3.43" fill="none" stroke="#000000" stroke-width="5" transform="rotate(-90,32.75,216.96)" pointer-events="all"/><rect x="102" y="8" width="64.93" height="19.48" rx="2.6" ry="2.6" fill="none" stroke="#000000" stroke-width="5" pointer-events="all"/><rect x="113.69" y="27.48" width="41.56" height="22.07" fill="none" stroke="#000000" stroke-width="5" pointer-events="all"/><ellipse cx="134.46" cy="62.54" rx="25.972000000000005" ry="32.46268656716418" fill="none" stroke="#000000" stroke-width="5" pointer-events="all"/><ellipse cx="134.47" cy="65.13" rx="15.583200000000001" ry="19.47761194029851" fill="none" stroke="#000000" stroke-width="5" pointer-events="all"/><ellipse cx="134.46" cy="54.75" rx="6.493000000000001" ry="9.08955223880597" fill="#000000" stroke="none" pointer-events="all"/><rect x="88.93" y="169" width="80" height="5" fill="#ffffff" stroke="#000000" stroke-width="5" transform="rotate(90,128.93,211.5)" pointer-events="all"/><path d="M 88.93 174 C 88.93 218.18 124.75 254 168.93 254 L 168.93 174" fill="none" stroke="#000000" stroke-width="5" stroke-miterlimit="10" transform="rotate(90,128.93,211.5)" pointer-events="all"/></g></svg>