<?xml version="1.0" encoding="UTF-8"?>
<!DOCTYPE svg PUBLIC "-//W3C//DTD SVG 1.1//EN" "http://www.w3.org/Graphics/SVG/1.1/DTD/svg11.dtd">
<svg xmlns="http://www.w3.org/2000/svg" xmlns:xlink="http://www.w3.org/1999/xlink" version="1.1" width="186px" height="255px" viewBox="-0.5 -0.5 186 255"><defs/><g><rect x="2" y="1.5" width="180" height="250" fill="none" stroke="#000000" stroke-width="5" pointer-events="all"/><rect x="2.03" y="1.5" width="180" height="80" fill="none" stroke="#000000" stroke-width="5" pointer-events="all"/><rect x="12.03" y="11.5" width="160" height="60" rx="9" ry="9" fill="none" stroke="#000000" stroke-width="5" pointer-events="all"/><path d="M 162.03 31.49 L 177.03 41.49 L 162.03 51.5 Z" fill="#000000" stroke="#000000" stroke-width="5" stroke-miterlimit="10" transform="rotate(180,169.53,41.49)" pointer-events="all"/><rect x="2.03" y="91.5" width="80" height="5" fill="#ffffff" stroke="#000000" stroke-width="5" pointer-events="all"/><path d="M 82.03 96.5 C 82.03 140.68 46.21 176.5 2.03 176.5 L 2.03 96.5" fill="none" stroke="#000000" stroke-width="5" stroke-miterlimit="10" pointer-events="all"/><rect x="59.5" y="139" width="65" height="160" fill="none" stroke="#000000" stroke-width="5" transform="rotate(90,92,219)" pointer-events="all"/><path d="M 166.29 191 L 166.29 225.29 C 166.29 239.49 150.94 251 132.01 251 C 113.07 251 97.72 239.49 97.72 225.29 L 97.72 191 Z Z" fill="none" stroke="#000000" stroke-width="5" stroke-miterlimit="10" transform="rotate(180,132.01,221)" pointer-events="all"/><ellipse cx="132.01" cy="225.29" rx="25.713749999999997" ry="17.142857142857142" fill="none" stroke="#000000" stroke-width="5" transform="rotate(180,132.01,221)" pointer-events="all"/><rect x="129.43" y="196.14" width="6.86" height="27.43" rx="3.43" ry="3.43" fill="none" stroke="#000000" stroke-width="5" transform="rotate(180,132.01,221)" pointer-events="all"/><rect x="129.43" y="196.14" width="6.86" height="18.86" rx="3.43" ry="3.43" fill="none" stroke="#000000" stroke-width="5" transform="rotate(180,132.01,221)" pointer-events="all"/><path d="M 86.29 191 L 86.29 225.29 C 86.29 239.49 70.94 251 52.01 251 C 33.07 251 17.72 239.49 17.72 225.29 L 17.72 191 Z Z" fill="none" stroke="#000000" stroke-width="5" stroke-miterlimit="10" transform="rotate(180,52.01,221)" pointer-events="all"/><ellipse cx="52.01" cy="225.29" rx="25.713749999999997" ry="17.142857142857142" fill="none" stroke="#000000" stroke-width="5" transform="rotate(180,52.01,221)" pointer-events="all"/><rect x="49.43" y="196.14" width="6.86" height="27.43" rx="3.43" ry="3.43" fill="none" stroke="#000000" stroke-width="5" transform="rotate(180,52.01,221)" pointer-events="all"/><rect x="49.43" y="196.14" width="6.86" height="18.86" rx="3.43" ry="3.43" fill="none" stroke="#000000" stroke-width="5" transform="rotate(180,52.01,221)" pointer-events="all"/></g></svg>